<svg width="640" height="1120" viewBox="0 0 640 1120" xmlns="http://www.w3.org/2000/svg" role="img" aria-label="Mobile wardrobe add item thumbnail">
  <defs>
    <linearGradient id="bg" x1="0%" y1="0%" x2="100%" y2="100%">
      <stop offset="0%" stop-color="#f3f6ff"/>
      <stop offset="100%" stop-color="#eef2f9"/>
    </linearGradient>
    <linearGradient id="brand" x1="0%" y1="0%" x2="100%" y2="100%">
      <stop offset="0%" stop-color="#667eea"/>
      <stop offset="100%" stop-color="#764ba2"/>
    </linearGradient>
  </defs>
  <rect width="640" height="1120" fill="url(#bg)"/>
  <rect x="119" y="132" width="402" height="856" rx="52" fill="#111827"/>
  <rect x="125" y="138" width="390" height="844" rx="42" fill="#f8fafc"/>
  <rect x="255" y="138" width="130" height="28" rx="14" fill="#111827"/>
  <rect x="275" y="149" width="62" height="6" rx="3" fill="#2b364d"/>
  <circle cx="361" cy="152" r="4" fill="#2b364d"/>
  <text x="150" y="124" font-size="12" font-family="Arial, sans-serif" fill="#334155" font-weight="700">&#x9875;&#x9762;2B&#xFF1A;&#x6DFB;&#x52A0;&#x8863;&#x670D;</text>

  <rect x="145" y="186" width="350" height="56" rx="14" fill="#ffffff" stroke="#dfe6f3"/>
  <text x="164" y="218" font-size="13" font-family="Arial, sans-serif" fill="#334155" font-weight="700">&#x6DFB;&#x52A0;&#x8863;&#x670D;</text>
  <rect x="455" y="199" width="30" height="30" rx="8" fill="#eef2ff" stroke="#d8e2fb"/>
  <text x="470" y="218" text-anchor="middle" font-size="14" font-family="Arial, sans-serif" fill="#667eea">&#x2715;</text>

  <rect x="145" y="256" width="350" height="486" rx="16" fill="#ffffff" stroke="#dfe6f3"/>

  <text x="164" y="286" font-size="11" font-family="Arial, sans-serif" fill="#64748b">&#x5206;&#x7C7B;</text>
  <rect x="164" y="296" width="312" height="40" rx="10" fill="#f7f9ff" stroke="#e5ebfb"/>
  <text x="180" y="321" font-size="11" font-family="Arial, sans-serif" fill="#9aa6bf">&#x8BF7;&#x9009;&#x62E9;&#x5206;&#x7C7B;</text>

  <text x="164" y="362" font-size="11" font-family="Arial, sans-serif" fill="#64748b">&#x540D;&#x79F0;</text>
  <rect x="164" y="372" width="312" height="40" rx="10" fill="#f7f9ff" stroke="#e5ebfb"/>
  <text x="180" y="397" font-size="11" font-family="Arial, sans-serif" fill="#9aa6bf">&#x4F8B;&#xFF1A;&#x767D;&#x8272;&#x886C;&#x886B;</text>

  <text x="164" y="438" font-size="11" font-family="Arial, sans-serif" fill="#64748b">&#x989C;&#x8272;</text>
  <rect x="164" y="448" width="150" height="40" rx="10" fill="#f7f9ff" stroke="#e5ebfb"/>
  <text x="180" y="473" font-size="11" font-family="Arial, sans-serif" fill="#9aa6bf">&#x9009;&#x62E9;&#x989C;&#x8272;</text>

  <text x="326" y="438" font-size="11" font-family="Arial, sans-serif" fill="#64748b">&#x5C3A;&#x5BF8;</text>
  <rect x="326" y="448" width="150" height="40" rx="10" fill="#f7f9ff" stroke="#e5ebfb"/>
  <text x="342" y="473" font-size="11" font-family="Arial, sans-serif" fill="#9aa6bf">M / L / XL</text>

  <text x="164" y="514" font-size="11" font-family="Arial, sans-serif" fill="#64748b">&#x54C1;&#x724C;</text>
  <rect x="164" y="524" width="150" height="40" rx="10" fill="#f7f9ff" stroke="#e5ebfb"/>
  <text x="180" y="549" font-size="11" font-family="Arial, sans-serif" fill="#9aa6bf">&#x4F8B;&#xFF1A;UNIQLO</text>

  <text x="326" y="514" font-size="11" font-family="Arial, sans-serif" fill="#64748b">&#x5B63;&#x8282;</text>
  <rect x="326" y="524" width="150" height="40" rx="10" fill="#f7f9ff" stroke="#e5ebfb"/>
  <text x="342" y="549" font-size="11" font-family="Arial, sans-serif" fill="#9aa6bf">&#x6625;&#x79CB;</text>

  <text x="164" y="590" font-size="11" font-family="Arial, sans-serif" fill="#64748b">&#x4EF7;&#x683C;</text>
  <rect x="164" y="600" width="150" height="40" rx="10" fill="#f7f9ff" stroke="#e5ebfb"/>
  <text x="180" y="625" font-size="11" font-family="Arial, sans-serif" fill="#9aa6bf">&#x4F8B;&#xFF1A;199</text>

  <text x="326" y="590" font-size="11" font-family="Arial, sans-serif" fill="#64748b">&#x8D2D;&#x4E70;&#x65E5;&#x671F;</text>
  <rect x="326" y="600" width="150" height="40" rx="10" fill="#f7f9ff" stroke="#e5ebfb"/>
  <text x="342" y="625" font-size="11" font-family="Arial, sans-serif" fill="#9aa6bf">2026-03-14</text>

  <text x="164" y="666" font-size="11" font-family="Arial, sans-serif" fill="#64748b">&#x56FE;&#x7247;</text>
  <rect x="164" y="676" width="312" height="56" rx="10" fill="#f7f9ff" stroke="#e5ebfb"/>
  <text x="320" y="709" text-anchor="middle" font-size="11" font-family="Arial, sans-serif" fill="#8fa0c4">&#x70B9;&#x51FB;&#x4E0A;&#x4F20;&#x6216;&#x62D6;&#x5165;&#x56FE;&#x7247;</text>

  <rect x="164" y="758" width="150" height="36" rx="10" fill="#eef2ff" stroke="#dbe4fa"/>
  <rect x="326" y="758" width="150" height="36" rx="10" fill="#667eea"/>
  <text x="239" y="781" text-anchor="middle" font-size="11" font-family="Arial, sans-serif" fill="#4d5a7c">&#x53D6;&#x6D88;</text>
  <text x="401" y="781" text-anchor="middle" font-size="11" font-family="Arial, sans-serif" fill="#ffffff">&#x6DFB;&#x52A0;&#x8863;&#x670D;</text>

  <rect x="145" y="908" width="350" height="60" rx="18" fill="#ffffff" stroke="#dce3f2"/>
  <polygon points="193,930 203,922 213,930 213,940 193,940" fill="none" stroke="#64748b" stroke-width="1.8"/>
  <rect x="198" y="934" width="10" height="6" rx="1.5" fill="#64748b" opacity="0.2"/>
  <rect x="311" y="923" width="18" height="16" rx="3" fill="none" stroke="#4f46e5" stroke-width="1.8"/>
  <line x1="314" y1="928" x2="326" y2="928" stroke="#4f46e5" stroke-width="1.4"/>
  <line x1="314" y1="933" x2="326" y2="933" stroke="#4f46e5" stroke-width="1.4"/>
  <circle cx="437" cy="927.5" r="5" fill="none" stroke="#64748b" stroke-width="1.8"/>
  <rect x="430" y="934" width="14" height="8" rx="4" fill="none" stroke="#64748b" stroke-width="1.8"/>
  <text x="203" y="952" text-anchor="middle" font-size="10" font-family="Arial, sans-serif" fill="#64748b">&#x9996;&#x9875;</text>
  <rect x="269" y="915" width="102" height="46" rx="12" fill="#667eea" opacity="0.2"/>
  <text x="320" y="952" text-anchor="middle" font-size="10" font-family="Arial, sans-serif" fill="#4f46e5" font-weight="700">&#x8863;&#x670D;&#x7BA1;&#x7406;</text>
  <text x="437" y="952" text-anchor="middle" font-size="10" font-family="Arial, sans-serif" fill="#64748b">&#x6211;&#x7684;&#x8863;&#x67DC;</text>
</svg>
