<svg width="640" height="1120" viewBox="0 0 640 1120" xmlns="http://www.w3.org/2000/svg" role="img" aria-label="Mobile stats page thumbnail">
  <rect width="640" height="1120" fill="#eef3ff"/>
  <rect x="119" y="132" width="402" height="856" rx="52" fill="#111827"/>
  <rect x="125" y="138" width="390" height="844" rx="42" fill="#f8fafc"/>
  <rect x="255" y="138" width="130" height="28" rx="14" fill="#111827"/>
  <rect x="275" y="149" width="62" height="6" rx="3" fill="#2b364d"/>
  <circle cx="361" cy="152" r="4" fill="#2b364d"/>
  <text x="150" y="124" font-size="12" font-family="Arial, sans-serif" fill="#334155" font-weight="700">??4????? / ? / ??</text>

  <rect x="145" y="186" width="350" height="56" rx="14" fill="#ffffff" stroke="#dfe6f3"/>
  <text x="164" y="218" font-size="13" font-family="Arial, sans-serif" fill="#334155" font-weight="700">????</text>
  <rect x="308" y="198" width="52" height="30" rx="9" fill="#d8e3fb"/>
  <rect x="368" y="198" width="52" height="30" rx="9" fill="#ffffff" stroke="#d6dff1"/>
  <rect x="428" y="198" width="52" height="30" rx="9" fill="#ffffff" stroke="#d6dff1"/>
  <text x="320" y="218" font-size="10" font-family="Arial, sans-serif" fill="#41506f">?</text>
  <text x="381" y="218" font-size="10" font-family="Arial, sans-serif" fill="#64748b">?</text>
  <text x="442" y="218" font-size="10" font-family="Arial, sans-serif" fill="#64748b">?</text>

  <rect x="145" y="256" width="350" height="158" rx="16" fill="#ffffff" stroke="#dfe6f3"/>
  <text x="162" y="282" font-size="12" font-family="Arial, sans-serif" fill="#334155" font-weight="700">????</text>
  <circle cx="222" cy="340" r="44" fill="#c8d5f5"/>
  <path d="M222 296 A44 44 0 0 1 262 360 L222 340 Z" fill="#9bb3ea"/>
  <path d="M222 340 L262 360 A44 44 0 0 1 202 380 Z" fill="#7d98dd"/>
  <text x="290" y="326" font-size="10" font-family="Arial, sans-serif" fill="#64748b">?? 42%</text>
  <text x="290" y="344" font-size="10" font-family="Arial, sans-serif" fill="#64748b">?? 31%</text>
  <text x="290" y="362" font-size="10" font-family="Arial, sans-serif" fill="#64748b">?? 27%</text>

  <rect x="145" y="428" width="350" height="174" rx="16" fill="#ffffff" stroke="#dfe6f3"/>
  <text x="162" y="454" font-size="12" font-family="Arial, sans-serif" fill="#334155" font-weight="700">????</text>
  <rect x="168" y="566" width="24" height="72" rx="6" fill="#a8bceb"/>
  <rect x="204" y="542" width="24" height="96" rx="6" fill="#8ca6e4"/>
  <rect x="240" y="518" width="24" height="120" rx="6" fill="#6f90dd"/>
  <rect x="276" y="552" width="24" height="86" rx="6" fill="#8ca6e4"/>
  <rect x="312" y="534" width="24" height="104" rx="6" fill="#7d98dd"/>
  <rect x="348" y="506" width="24" height="132" rx="6" fill="#5f82d6"/>
  <rect x="384" y="548" width="24" height="90" rx="6" fill="#9db4e9"/>
  <text x="420" y="530" font-size="10" font-family="Arial, sans-serif" fill="#64748b">?????18?</text>
  <text x="420" y="548" font-size="10" font-family="Arial, sans-serif" fill="#64748b">?????286?</text>
  <text x="420" y="566" font-size="10" font-family="Arial, sans-serif" fill="#64748b">????21%</text>

  <rect x="145" y="616" width="350" height="136" rx="16" fill="#ffffff" stroke="#dfe6f3"/>
  <text x="162" y="642" font-size="12" font-family="Arial, sans-serif" fill="#334155" font-weight="700">??????</text>
  <polyline points="165,716 205,698 245,706 285,678 325,690 365,674 405,686 445,666" fill="none" stroke="#6f90dd" stroke-width="3"/>
  <circle cx="445" cy="666" r="4" fill="#6f90dd"/>

  <rect x="145" y="908" width="350" height="60" rx="18" fill="#ffffff" stroke="#dce3f2"/>
  <rect x="296" y="915" width="58" height="46" rx="12" fill="#667eea" opacity="0.2"/>
  <text x="173" y="952" font-size="9" font-family="Arial, sans-serif" fill="#64748b">??</text>
  <text x="245" y="952" font-size="9" font-family="Arial, sans-serif" fill="#64748b">??</text>
  <text x="315" y="952" font-size="9" font-family="Arial, sans-serif" fill="#4f46e5" font-weight="700">??</text>
  <text x="384" y="952" font-size="9" font-family="Arial, sans-serif" fill="#64748b">??</text>
</svg>
