<svg width="640" height="1120" viewBox="0 0 640 1120" xmlns="http://www.w3.org/2000/svg" role="img" aria-label="iOS style mobile wardrobe thumbnail">
  <defs>
    <linearGradient id="bg" x1="0%" y1="0%" x2="100%" y2="100%">
      <stop offset="0%" stop-color="#f5f7fb"/>
      <stop offset="100%" stop-color="#eef2f7"/>
    </linearGradient>
    <linearGradient id="frameMetal" x1="0%" y1="0%" x2="100%" y2="100%">
      <stop offset="0%" stop-color="#454c56"/>
      <stop offset="35%" stop-color="#21262d"/>
      <stop offset="70%" stop-color="#2a313a"/>
      <stop offset="100%" stop-color="#4b5563"/>
    </linearGradient>
  </defs>
  <rect width="640" height="1120" fill="url(#bg)"/>
  <rect x="112" y="258" width="6" height="90" rx="3" fill="#3b414a"/>
  <rect x="112" y="362" width="6" height="74" rx="3" fill="#3b414a"/>
  <rect x="112" y="182" width="6" height="56" rx="3" fill="#3b414a"/>
  <rect x="522" y="282" width="6" height="120" rx="3" fill="#3b414a"/>
  <rect x="118" y="130" width="404" height="860" rx="54" fill="url(#frameMetal)" stroke="#697280" stroke-width="1"/>
  <rect x="126" y="138" width="388" height="844" rx="44" fill="#f2f2f7"/>
  <rect x="248" y="138" width="144" height="30" rx="15" fill="#0a0b0d"/>
  <rect x="282" y="150" width="62" height="6" rx="3" fill="#2e333c"/>
  <circle cx="360" cy="153" r="4" fill="#2e333c"/>
  <text x="148" y="122" font-size="12" font-family="SF Pro Text, -apple-system, BlinkMacSystemFont, sans-serif" fill="#6b7280" font-weight="600">&#x9875;&#x9762;2&#xFF1A;iOS&#x8863;&#x670D;&#x7BA1;&#x7406;</text>

  <text x="150" y="204" font-size="22" font-family="SF Pro Display, -apple-system, BlinkMacSystemFont, sans-serif" fill="#111827" font-weight="700">&#x8863;&#x670D;&#x7BA1;&#x7406;</text>
  <rect x="380" y="184" width="52" height="26" rx="10" fill="#edf2ff"/>
  <rect x="438" y="184" width="52" height="26" rx="10" fill="#5b84ff"/>
  <text x="406" y="201" text-anchor="middle" font-size="10" font-family="SF Pro Text, -apple-system, BlinkMacSystemFont, sans-serif" fill="#374151">&#x7B5B;&#x9009;</text>
  <text x="464" y="201" text-anchor="middle" font-size="10" font-family="SF Pro Text, -apple-system, BlinkMacSystemFont, sans-serif" fill="#ffffff">&#x65B0;&#x589E;</text>

  <rect x="145" y="224" width="350" height="56" rx="16" fill="#ffffff" stroke="#e5e7eb"/>
  <rect x="158" y="237" width="56" height="30" rx="12" fill="#dbe7ff"/>
  <rect x="220" y="237" width="56" height="30" rx="12" fill="#f3f4f6"/>
  <rect x="282" y="237" width="56" height="30" rx="12" fill="#f3f4f6"/>
  <rect x="344" y="237" width="56" height="30" rx="12" fill="#f3f4f6"/>
  <text x="186" y="256" text-anchor="middle" font-size="10" font-family="SF Pro Text, -apple-system, BlinkMacSystemFont, sans-serif" fill="#374151">&#x5168;&#x90E8;</text>
  <text x="248" y="256" text-anchor="middle" font-size="10" font-family="SF Pro Text, -apple-system, BlinkMacSystemFont, sans-serif" fill="#6b7280">&#x5916;&#x5957;</text>
  <text x="310" y="256" text-anchor="middle" font-size="10" font-family="SF Pro Text, -apple-system, BlinkMacSystemFont, sans-serif" fill="#6b7280">&#x88E4;&#x5B50;</text>
  <text x="372" y="256" text-anchor="middle" font-size="10" font-family="SF Pro Text, -apple-system, BlinkMacSystemFont, sans-serif" fill="#6b7280">&#x978B;&#x5B50;</text>

  <rect x="145" y="294" width="166" height="196" rx="16" fill="#ffffff" stroke="#e5e7eb"/>
  <rect x="329" y="294" width="166" height="196" rx="16" fill="#ffffff" stroke="#e5e7eb"/>
  <rect x="157" y="306" width="142" height="96" rx="12" fill="#edf2ff"/>
  <rect x="341" y="306" width="142" height="96" rx="12" fill="#eef2f7"/>
  <text x="166" y="420" font-size="11" font-family="SF Pro Text, -apple-system, BlinkMacSystemFont, sans-serif" fill="#111827" font-weight="700">&#x9632;&#x98CE;&#x5916;&#x5957;</text>
  <text x="166" y="438" font-size="10" font-family="SF Pro Text, -apple-system, BlinkMacSystemFont, sans-serif" fill="#64748b">&#x9ED1;&#x8272; | M | &#x6625;&#x79CB;</text>
  <rect x="157" y="450" width="68" height="24" rx="8" fill="#5b84ff"/>
  <rect x="231" y="450" width="68" height="24" rx="8" fill="#ef4444"/>
  <text x="191" y="466" text-anchor="middle" font-size="10" font-family="SF Pro Text, -apple-system, BlinkMacSystemFont, sans-serif" fill="#ffffff">&#x7F16;&#x8F91;</text>
  <text x="265" y="466" text-anchor="middle" font-size="10" font-family="SF Pro Text, -apple-system, BlinkMacSystemFont, sans-serif" fill="#ffffff">&#x5220;&#x9664;</text>

  <text x="350" y="420" font-size="11" font-family="SF Pro Text, -apple-system, BlinkMacSystemFont, sans-serif" fill="#111827" font-weight="700">&#x76F4;&#x7B52;&#x88E4;</text>
  <text x="350" y="438" font-size="10" font-family="SF Pro Text, -apple-system, BlinkMacSystemFont, sans-serif" fill="#64748b">&#x6DF1;&#x7070; | L | &#x56DB;&#x5B63;</text>
  <rect x="341" y="450" width="68" height="24" rx="8" fill="#5b84ff"/>
  <rect x="415" y="450" width="68" height="24" rx="8" fill="#ef4444"/>
  <text x="375" y="466" text-anchor="middle" font-size="10" font-family="SF Pro Text, -apple-system, BlinkMacSystemFont, sans-serif" fill="#ffffff">&#x7F16;&#x8F91;</text>
  <text x="449" y="466" text-anchor="middle" font-size="10" font-family="SF Pro Text, -apple-system, BlinkMacSystemFont, sans-serif" fill="#ffffff">&#x5220;&#x9664;</text>

  <rect x="145" y="502" width="166" height="196" rx="16" fill="#ffffff" stroke="#e5e7eb"/>
  <rect x="329" y="502" width="166" height="196" rx="16" fill="#ffffff" stroke="#e5e7eb"/>
  <rect x="157" y="514" width="142" height="96" rx="12" fill="#f3f4f6"/>
  <rect x="341" y="514" width="142" height="96" rx="12" fill="#f1f5f9"/>
  <text x="166" y="628" font-size="11" font-family="SF Pro Text, -apple-system, BlinkMacSystemFont, sans-serif" fill="#111827" font-weight="700">&#x9488;&#x7EC7;&#x886B;</text>
  <text x="166" y="646" font-size="10" font-family="SF Pro Text, -apple-system, BlinkMacSystemFont, sans-serif" fill="#64748b">&#x767D;&#x8272; | M | &#x6625;&#x79CB;</text>
  <rect x="157" y="658" width="68" height="24" rx="8" fill="#5b84ff"/>
  <rect x="231" y="658" width="68" height="24" rx="8" fill="#ef4444"/>
  <text x="191" y="674" text-anchor="middle" font-size="10" font-family="SF Pro Text, -apple-system, BlinkMacSystemFont, sans-serif" fill="#ffffff">&#x7F16;&#x8F91;</text>
  <text x="265" y="674" text-anchor="middle" font-size="10" font-family="SF Pro Text, -apple-system, BlinkMacSystemFont, sans-serif" fill="#ffffff">&#x5220;&#x9664;</text>

  <text x="350" y="628" font-size="11" font-family="SF Pro Text, -apple-system, BlinkMacSystemFont, sans-serif" fill="#111827" font-weight="700">&#x8FD0;&#x52A8;&#x978B;</text>
  <text x="350" y="646" font-size="10" font-family="SF Pro Text, -apple-system, BlinkMacSystemFont, sans-serif" fill="#64748b">&#x767D;&#x84DD; | 42 | &#x56DB;&#x5B63;</text>
  <rect x="341" y="658" width="68" height="24" rx="8" fill="#5b84ff"/>
  <rect x="415" y="658" width="68" height="24" rx="8" fill="#ef4444"/>
  <text x="375" y="674" text-anchor="middle" font-size="10" font-family="SF Pro Text, -apple-system, BlinkMacSystemFont, sans-serif" fill="#ffffff">&#x7F16;&#x8F91;</text>
  <text x="449" y="674" text-anchor="middle" font-size="10" font-family="SF Pro Text, -apple-system, BlinkMacSystemFont, sans-serif" fill="#ffffff">&#x5220;&#x9664;</text>

  <rect x="145" y="906" width="350" height="62" rx="20" fill="rgba(255,255,255,0.95)" stroke="#dde3ee"/>
  <circle cx="203" cy="930" r="7" fill="none" stroke="#6b7280" stroke-width="1.8"/>
  <line x1="203" y1="923" x2="203" y2="937" stroke="#6b7280" stroke-width="1.6"/>
  <line x1="196" y1="930" x2="210" y2="930" stroke="#6b7280" stroke-width="1.6"/>
  <rect x="268" y="914" width="104" height="46" rx="14" fill="#e8eeff"/>
  <rect x="311" y="922" width="18" height="14" rx="3" fill="none" stroke="#4f46e5" stroke-width="1.7"/>
  <line x1="314" y1="927" x2="326" y2="927" stroke="#4f46e5" stroke-width="1.3"/>
  <line x1="314" y1="932" x2="326" y2="932" stroke="#4f46e5" stroke-width="1.3"/>
  <circle cx="438" cy="927" r="5" fill="none" stroke="#6b7280" stroke-width="1.7"/>
  <rect x="431" y="934" width="14" height="8" rx="4" fill="none" stroke="#6b7280" stroke-width="1.7"/>
  <text x="203" y="952" text-anchor="middle" font-size="10" font-family="SF Pro Text, -apple-system, BlinkMacSystemFont, sans-serif" fill="#6b7280">&#x9996;&#x9875;</text>
  <text x="320" y="952" text-anchor="middle" font-size="10" font-family="SF Pro Text, -apple-system, BlinkMacSystemFont, sans-serif" fill="#4f46e5" font-weight="700">&#x8863;&#x670D;&#x7BA1;&#x7406;</text>
  <text x="438" y="952" text-anchor="middle" font-size="10" font-family="SF Pro Text, -apple-system, BlinkMacSystemFont, sans-serif" fill="#6b7280">&#x6211;&#x7684;&#x8863;&#x67DC;</text>
</svg>
