<svg width="640" height="1120" viewBox="0 0 640 1120" xmlns="http://www.w3.org/2000/svg" role="img" aria-label="Mobile mine profile thumbnail">
  <defs>
    <linearGradient id="bg" x1="0%" y1="0%" x2="100%" y2="100%">
      <stop offset="0%" stop-color="#f3f6ff"/>
      <stop offset="100%" stop-color="#eef2f9"/>
    </linearGradient>
    <linearGradient id="header" x1="0%" y1="0%" x2="100%" y2="100%">
      <stop offset="0%" stop-color="#667eea"/>
      <stop offset="100%" stop-color="#764ba2"/>
    </linearGradient>
  </defs>
  <rect width="640" height="1120" fill="url(#bg)"/>
  <rect x="119" y="132" width="402" height="856" rx="52" fill="#111827"/>
  <rect x="125" y="138" width="390" height="844" rx="42" fill="#f8fafc"/>
  <rect x="255" y="138" width="130" height="28" rx="14" fill="#111827"/>
  <rect x="275" y="149" width="62" height="6" rx="3" fill="#2b364d"/>
  <circle cx="361" cy="152" r="4" fill="#2b364d"/>
  <text x="150" y="124" font-size="12" font-family="Arial, sans-serif" fill="#334155" font-weight="700">&#x9875;&#x9762;3B&#xFF1A;&#x6211;&#x7684;&#x8863;&#x67DC;&#xFF08;&#x5DF2;&#x767B;&#x5F55;&#xFF09;</text>

  <rect x="145" y="188" width="350" height="158" rx="18" fill="url(#header)"/>
  <circle cx="184" cy="234" r="32" fill="#ffffff" opacity="0.95"/>
  <circle cx="184" cy="226" r="11" fill="#c8d5f5"/>
  <rect x="167" y="241" width="34" height="18" rx="9" fill="#c8d5f5"/>
  <text x="184" y="282" text-anchor="middle" font-size="13" font-family="Arial, sans-serif" fill="#ffffff" font-weight="700">&#x6668;&#x98CE;</text>
  <text x="228" y="230" font-size="14" font-family="Arial, sans-serif" fill="#ffffff" font-weight="700">&#x6211;&#x7684;&#x8863;&#x67DC;</text>
  <text x="228" y="252" font-size="11" font-family="Arial, sans-serif" fill="#ffffff">&#x5DF2;&#x767B;&#x5F55;&#x8D26;&#x53F7;</text>
  <text x="228" y="272" font-size="11" font-family="Arial, sans-serif" fill="#ffffff">&#x4E2A;&#x4EBA;&#x8D44;&#x6599;&#x4E0E; AI &#x7D20;&#x6750;&#x7BA1;&#x7406;</text>
  <rect x="228" y="286" width="114" height="28" rx="10" fill="#ffffff" opacity="0.24"/>
  <text x="285" y="304" text-anchor="middle" font-size="11" font-family="Arial, sans-serif" fill="#ffffff">&#x7F16;&#x8F91;&#x8D44;&#x6599;</text>

  <rect x="145" y="360" width="350" height="192" rx="14" fill="#ffffff" stroke="#dfe6f3"/>
  <text x="164" y="388" font-size="12" font-family="Arial, sans-serif" fill="#334155" font-weight="700">&#x4E2A;&#x4EBA;&#x4FE1;&#x606F;</text>
  <rect x="164" y="402" width="312" height="40" rx="10" fill="#f7f9ff" stroke="#e5ebfb"/>
  <text x="180" y="427" font-size="11" font-family="Arial, sans-serif" fill="#41506f">&#x6635;&#x79F0;&#xFF1A;&#x6668;&#x98CE;</text>
  <rect x="164" y="450" width="312" height="40" rx="10" fill="#f7f9ff" stroke="#e5ebfb"/>
  <text x="180" y="475" font-size="11" font-family="Arial, sans-serif" fill="#41506f">&#x57CE;&#x5E02;&#xFF1A;&#x6DF1;&#x5733;</text>
  <rect x="164" y="498" width="312" height="40" rx="10" fill="#f7f9ff" stroke="#e5ebfb"/>
  <text x="180" y="523" font-size="11" font-family="Arial, sans-serif" fill="#41506f">&#x98CE;&#x683C;&#x6807;&#x7B7E;&#xFF1A;&#x901A;&#x52E4; / &#x7B80;&#x7EA6;</text>

  <rect x="145" y="566" width="350" height="258" rx="14" fill="#ffffff" stroke="#dfe6f3"/>
  <text x="164" y="594" font-size="12" font-family="Arial, sans-serif" fill="#334155" font-weight="700">&#x4E2A;&#x4EBA;&#x56FE;&#x7247;&#xFF08;&#x7528;&#x4E8E;AI&#x751F;&#x56FE;&#xFF09;</text>
  <rect x="164" y="610" width="312" height="150" rx="12" fill="#f8fbff" stroke="#d8e4fb" stroke-dasharray="5 4"/>
  <text x="320" y="676" text-anchor="middle" font-size="12" font-family="Arial, sans-serif" fill="#6c7fa3">&#x4E0A;&#x4F20;&#x672C;&#x4EBA;&#x7A7F;&#x642D;&#x7167;</text>
  <text x="320" y="696" text-anchor="middle" font-size="10" font-family="Arial, sans-serif" fill="#8a99b5">&#x7528;&#x4E8E;&#x751F;&#x6210;&#x4E2A;&#x6027;&#x5316;&#x7A7F;&#x642D;&#x793A;&#x610F;&#x56FE;</text>
  <rect x="164" y="772" width="148" height="36" rx="10" fill="#e9eefb"/>
  <rect x="328" y="772" width="148" height="36" rx="10" fill="#c8d5f5"/>
  <text x="238" y="795" text-anchor="middle" font-size="11" font-family="Arial, sans-serif" fill="#41506f">&#x7BA1;&#x7406;&#x56FE;&#x7247;</text>
  <text x="402" y="795" text-anchor="middle" font-size="11" font-family="Arial, sans-serif" fill="#374f87">&#x4E0A;&#x4F20;&#x65B0;&#x56FE;</text>

  <rect x="145" y="908" width="350" height="60" rx="18" fill="#ffffff" stroke="#dce3f2"/>
  <polygon points="193,930 203,922 213,930 213,940 193,940" fill="none" stroke="#64748b" stroke-width="1.8"/>
  <rect x="198" y="934" width="10" height="6" rx="1.5" fill="#64748b" opacity="0.2"/>
  <rect x="311" y="923" width="18" height="16" rx="3" fill="none" stroke="#64748b" stroke-width="1.8"/>
  <line x1="314" y1="928" x2="326" y2="928" stroke="#64748b" stroke-width="1.4"/>
  <line x1="314" y1="933" x2="326" y2="933" stroke="#64748b" stroke-width="1.4"/>
  <circle cx="439" cy="927.5" r="5" fill="none" stroke="#4f46e5" stroke-width="1.8"/>
  <rect x="432" y="934" width="14" height="8" rx="4" fill="none" stroke="#4f46e5" stroke-width="1.8"/>
  <text x="203" y="952" text-anchor="middle" font-size="10" font-family="Arial, sans-serif" fill="#64748b">&#x9996;&#x9875;</text>
  <text x="320" y="952" text-anchor="middle" font-size="10" font-family="Arial, sans-serif" fill="#64748b">&#x8863;&#x670D;&#x7BA1;&#x7406;</text>
  <rect x="393" y="915" width="92" height="46" rx="12" fill="#667eea" opacity="0.2"/>
  <text x="439" y="952" text-anchor="middle" font-size="10" font-family="Arial, sans-serif" fill="#4f46e5" font-weight="700">&#x6211;&#x7684;&#x8863;&#x67DC;</text>
</svg>
